<svg width="433" height="625" viewBox="0 0 433 625" fill="none" xmlns="http://www.w3.org/2000/svg">
<path d="M202.807 22.4399H73.2056V42.0153H202.807V22.4399Z" fill="#7FD8BE"/>
<path d="M17.6235 52.2806L77.0016 0L136.38 52.2806H17.6235Z" fill="#FDCA40"/>
<path d="M343.797 548.702H0V568.277H343.797V548.702Z" fill="#2E86AB"/>
<path d="M195.216 429.101H172.983V624.616H195.216V429.101Z" fill="#7FD8BE"/>
<path d="M104.658 448.199H82.4248V563.264H104.658V448.199Z" fill="#FDCA40"/>
<path d="M212.839 590.479L272.217 538.198L331.595 590.479H212.839Z" fill="#FDCA40"/>
<path d="M135.567 501.912H51.5154V427.908L135.567 501.912Z" fill="#2E86AB"/>
<path d="M377.688 224.821H256.763V236.519H377.688V224.821Z" fill="#7FD8BE"/>
<path d="M382.026 221.002H252.425V240.577H382.026V221.002Z" fill="#7FD8BE"/>
<path d="M395.583 152.488H373.351V348.003H395.583V152.488Z" fill="#FDCA40"/>
<path d="M348.948 273.521V199.517H433L348.948 273.521Z" fill="#2E86AB"/>
</svg>
